<svg xmlns="http://www.w3.org/2000/svg"  viewBox="0 0 100 100" width="200px" height="200px"><path d="M 16.894531 14 A 1.0001 1.0001 0 0 0 15.898438 15.087891 L 21.740234 81.298828 A 1.0001 1.0001 0 0 0 22.462891 82.171875 L 49.724609 89.960938 A 1.0001 1.0001 0 0 0 50.275391 89.960938 L 77.537109 82.171875 A 1.0001 1.0001 0 0 0 78.259766 81.298828 L 84.101562 15.087891 A 1.0001 1.0001 0 0 0 83.105469 14 L 16.894531 14 z M 17.986328 16 L 82.013672 16 L 76.328125 80.4375 L 50 87.960938 L 23.671875 80.4375 L 17.986328 16 z M 50 20 A 0.50005 0.50005 0 0 0 49.5 20.5 L 49.5 24.5 A 0.50005 0.50005 0 1 0 50.5 24.5 L 50.5 21 L 76.164062 21 L 71.341797 76.345703 L 67.439453 77.460938 A 0.50005 0.50005 0 1 0 67.712891 78.421875 L 71.949219 77.212891 A 0.50005 0.50005 0 0 0 72.308594 76.775391 L 77.207031 20.542969 A 0.50005 0.50005 0 0 0 76.708984 20 L 50 20 z M 49.992188 26.992188 A 0.50005 0.50005 0 0 0 49.5 27.5 L 49.5 30.080078 L 32.279297 30.080078 A 0.50005 0.50005 0 0 0 31.779297 30.609375 L 33.142578 53.976562 A 0.50005 0.50005 0 0 0 33.642578 54.447266 L 50 54.447266 L 58.033203 54.447266 L 57.507812 62.345703 L 50.5 64.738281 L 50.5 56.947266 A 0.50005 0.50005 0 0 0 49.992188 56.439453 A 0.50005 0.50005 0 0 0 49.5 56.947266 L 49.5 64.738281 L 42.486328 62.34375 L 42.125 57.802734 A 0.50005 0.50005 0 0 0 41.626953 57.341797 L 33.837891 57.341797 A 0.50005 0.50005 0 0 0 33.337891 57.878906 L 34.117188 68.589844 A 0.50005 0.50005 0 0 0 34.458984 69.027344 L 49.5 73.978516 L 49.5 82.962891 A 0.50005 0.50005 0 0 0 50.136719 83.443359 L 59.583984 80.744141 A 0.50005 0.50005 0 1 0 59.310547 79.783203 L 50.5 82.300781 L 50.5 73.978516 L 65.541016 69.027344 A 0.50005 0.50005 0 0 0 65.882812 68.583984 L 67.246094 46.1875 A 0.50005 0.50005 0 0 0 66.746094 45.658203 L 50.5 45.658203 L 50.5 41.367188 A 0.50005 0.50005 0 0 0 49.992188 40.861328 A 0.50005 0.50005 0 0 0 49.5 41.367188 L 49.5 45.658203 L 41.505859 45.658203 L 40.998047 38.869141 L 50 38.869141 L 67.332031 38.869141 A 0.50005 0.50005 0 0 0 67.830078 38.40625 L 68.414062 30.617188 A 0.50005 0.50005 0 0 0 67.916016 30.080078 L 50.5 30.080078 L 50.5 27.5 A 0.50005 0.50005 0 0 0 49.992188 26.992188 z M 32.808594 31.080078 L 50 31.080078 L 67.376953 31.080078 L 66.867188 37.869141 L 50 37.869141 L 40.457031 37.869141 A 0.50005 0.50005 0 0 0 39.958984 38.40625 L 40.542969 46.195312 A 0.50005 0.50005 0 0 0 41.042969 46.658203 L 49.919922 46.658203 A 0.50005 0.50005 0 0 0 50.082031 46.658203 L 66.214844 46.658203 L 64.90625 68.183594 L 50 73.089844 L 35.089844 68.183594 L 34.375 58.341797 L 41.164062 58.341797 L 41.515625 62.75 A 0.50005 0.50005 0 0 0 41.853516 63.183594 L 49.767578 65.886719 A 0.50005 0.50005 0 0 0 50.232422 65.886719 L 58.146484 63.183594 A 0.50005 0.50005 0 0 0 58.482422 62.744141 L 59.066406 53.980469 A 0.50005 0.50005 0 0 0 58.568359 53.447266 L 50 53.447266 L 34.113281 53.447266 L 32.808594 31.080078 z M 64.527344 78.308594 A 0.50005 0.50005 0 0 0 64.394531 78.330078 L 62.400391 78.900391 A 0.50005 0.50005 0 1 0 62.673828 79.861328 L 64.667969 79.291016 A 0.50005 0.50005 0 0 0 64.527344 78.308594 z"/></svg>